<?xml version="1.0" encoding="UTF-8"?>
<svg xmlns="http://www.w3.org/2000/svg" xmlns:xlink="http://www.w3.org/1999/xlink" width="279.70815pt" height="204.6537pt" viewBox="0 0 279.70815 204.6537" version="1.1">
<defs>
<clipPath id="clip1">
  <path d="M 138 197 L 148 197 L 148 204.652344 L 138 204.652344 Z M 138 197 "/>
</clipPath>
<clipPath id="clip2">
  <path d="M 147 100 L 229 100 L 229 204.652344 L 147 204.652344 Z M 147 100 "/>
</clipPath>
<clipPath id="clip3">
  <path d="M 95 87 L 148 87 L 148 204.652344 L 95 204.652344 Z M 95 87 "/>
</clipPath>
<clipPath id="clip4">
  <path d="M 147 189 L 154 189 L 154 204.652344 L 147 204.652344 Z M 147 189 "/>
</clipPath>
<clipPath id="clip5">
  <path d="M 187 94 L 261 94 L 261 204.652344 L 187 204.652344 Z M 187 94 "/>
</clipPath>
<clipPath id="clip6">
  <path d="M 233 0 L 279.707031 0 L 279.707031 95 L 233 95 Z M 233 0 "/>
</clipPath>
<clipPath id="clip7">
  <path d="M 0 76 L 122 76 L 122 204.652344 L 0 204.652344 Z M 0 76 "/>
</clipPath>
<clipPath id="clip8">
  <path d="M 234 44 L 279.707031 44 L 279.707031 204.652344 L 234 204.652344 Z M 234 44 "/>
</clipPath>
<clipPath id="clip9">
  <path d="M 0 0 L 279.707031 0 L 279.707031 204.652344 L 0 204.652344 Z M 0 0 "/>
</clipPath>
<clipPath id="clip10">
  <path d="M 71 0 L 279.707031 0 L 279.707031 119 L 71 119 Z M 71 0 "/>
</clipPath>
<clipPath id="clip11">
  <path d="M 86 56 L 269 56 L 269 204.652344 L 86 204.652344 Z M 86 56 "/>
</clipPath>
<clipPath id="clip12">
  <path d="M 0 18 L 179 18 L 179 204.652344 L 0 204.652344 Z M 0 18 "/>
</clipPath>
<clipPath id="clip13">
  <path d="M 109 6 L 219 6 L 219 204.652344 L 109 204.652344 Z M 109 6 "/>
</clipPath>
<clipPath id="clip14">
  <path d="M 146 0 L 279.707031 0 L 279.707031 204.652344 L 146 204.652344 Z M 146 0 "/>
</clipPath>
<clipPath id="clip15">
  <path d="M 0 95 L 104 95 L 104 204.652344 L 0 204.652344 Z M 0 95 "/>
</clipPath>
<clipPath id="clip16">
  <path d="M 0 87 L 112 87 L 112 204.652344 L 0 204.652344 Z M 0 87 "/>
</clipPath>
<clipPath id="clip17">
  <path d="M 0 0 L 279.707031 0 L 279.707031 204.652344 L 0 204.652344 Z M 0 0 "/>
</clipPath>
</defs>
<g id="surface1">
<path style=" stroke:none;fill-rule:nonzero;fill:rgb(19.607544%,53.72467%,14.509583%);fill-opacity:1;" d="M 145.558594 64.890625 C 146.921875 66.523438 148.242188 68.191406 149.515625 69.898438 C 141.257812 72.890625 133.621094 77.175781 126.828125 82.5 L 117.679688 63.929688 Z M 145.558594 64.890625 "/>
<path style=" stroke:none;fill-rule:nonzero;fill:rgb(0%,61.959839%,87.841797%);fill-opacity:1;" d="M 126.832031 82.5 C 124.691406 84.171875 122.636719 85.949219 120.679688 87.824219 C 116.195312 84.328125 112.003906 80.476562 108.140625 76.3125 C 113.808594 65.902344 117.199219 54.066406 117.628906 41.480469 C 128.246094 47.617188 137.699219 55.558594 145.558594 64.890625 L 117.679688 63.929688 Z M 126.832031 82.5 "/>
<path style=" stroke:none;fill-rule:nonzero;fill:rgb(88.626099%,0%,10.195923%);fill-opacity:1;" d="M 186.386719 65.421875 L 191.816406 32.183594 L 166.902344 59.039062 L 150.671875 14.566406 L 147.679688 64.964844 L 145.558594 64.890625 C 137.699219 55.558594 128.246094 47.617188 117.628906 41.480469 C 117.664062 40.566406 117.679688 39.644531 117.679688 38.714844 C 117.679688 23.585938 113.417969 9.457031 106.023438 -2.535156 L 268.59375 -2.535156 L 233.855469 87.058594 C 221.128906 75.203125 204.644531 67.335938 186.386719 65.421875 Z M 186.386719 65.421875 "/>
<path style=" stroke:none;fill-rule:nonzero;fill:rgb(0%,52.548218%,79.606628%);fill-opacity:1;" d="M 149.519531 69.898438 C 148.242188 68.191406 146.921875 66.523438 145.558594 64.890625 L 147.679688 64.964844 L 150.671875 14.566406 L 166.902344 59.039062 L 191.816406 32.183594 L 186.386719 65.421875 C 183.523438 65.121094 180.621094 64.964844 177.679688 64.964844 C 167.789062 64.964844 158.308594 66.703125 149.519531 69.898438 Z M 149.519531 69.898438 "/>
<path style=" stroke:none;fill-rule:nonzero;fill:rgb(19.607544%,53.72467%,14.509583%);fill-opacity:1;" d="M 153.605469 189.121094 C 151.707031 192.074219 149.660156 194.925781 147.484375 197.667969 L 146.335938 139.175781 L 117.679688 143.097656 L 137.179688 103.515625 L 133.738281 96.523438 C 144.019531 102.316406 155.375 106.417969 167.425781 108.464844 C 169.226562 116.175781 170.179688 124.207031 170.179688 132.464844 C 170.179688 138.417969 169.683594 144.261719 168.726562 149.953125 L 166.902344 147.988281 L 153.613281 189.105469 C 153.605469 189.113281 153.605469 189.113281 153.605469 189.121094 Z M 153.605469 189.121094 "/>
<g clip-path="url(#clip1)" clip-rule="nonzero">
<path style=" stroke:none;fill-rule:nonzero;fill:rgb(88.626099%,0%,10.195923%);fill-opacity:1;" d="M 147.679688 207.464844 L 138.671875 207.464844 C 141.808594 204.390625 144.753906 201.113281 147.484375 197.667969 Z M 147.679688 207.464844 "/>
</g>
<g clip-path="url(#clip2)" clip-rule="nonzero">
<path style=" stroke:none;fill-rule:nonzero;fill:rgb(88.626099%,0%,10.195923%);fill-opacity:1;" d="M 203.59375 108.351562 C 212.351562 106.808594 220.746094 104.167969 228.613281 100.589844 L 187.167969 207.464844 L 147.679688 207.464844 L 153.605469 189.121094 C 153.605469 189.113281 153.605469 189.113281 153.613281 189.105469 C 161.105469 177.425781 166.347656 164.175781 168.726562 149.953125 L 191.816406 174.847656 L 183.402344 123.304688 Z M 203.59375 108.351562 "/>
</g>
<g clip-path="url(#clip3)" clip-rule="nonzero">
<path style=" stroke:none;fill-rule:nonzero;fill:rgb(0%,52.548218%,79.606628%);fill-opacity:1;" d="M 117.679688 143.101562 L 146.335938 139.179688 L 147.484375 197.671875 C 144.753906 201.113281 141.808594 204.390625 138.671875 207.464844 L 121.070312 207.464844 C 105.132812 192.4375 95.179688 171.113281 95.179688 147.464844 C 95.179688 124.011719 104.964844 102.847656 120.679688 87.824219 C 124.796875 91.035156 129.160156 93.945312 133.738281 96.527344 L 137.179688 103.515625 Z M 117.679688 143.101562 "/>
</g>
<path style=" stroke:none;fill-rule:nonzero;fill:rgb(100%,92.547607%,0%);fill-opacity:1;" d="M 166.902344 147.988281 L 168.726562 149.953125 C 166.347656 164.175781 161.105469 177.425781 153.613281 189.105469 Z M 166.902344 147.988281 "/>
<g clip-path="url(#clip4)" clip-rule="nonzero">
<path style=" stroke:none;fill-rule:nonzero;fill:rgb(0%,52.548218%,79.606628%);fill-opacity:1;" d="M 147.679688 207.464844 L 147.484375 197.667969 C 149.660156 194.925781 151.707031 192.074219 153.605469 189.121094 Z M 147.679688 207.464844 "/>
</g>
<path style=" stroke:none;fill-rule:nonzero;fill:rgb(0%,61.959839%,87.841797%);fill-opacity:1;" d="M 38.929688 117.464844 C 23.800781 117.464844 9.671875 113.203125 -2.320312 105.808594 L -2.320312 52.027344 C 8.726562 42.75 21.703125 35.707031 35.929688 31.589844 C 35.441406 33.886719 35.179688 36.269531 35.179688 38.714844 C 35.179688 57.351562 50.292969 72.464844 68.929688 72.464844 C 79.699219 72.464844 89.292969 67.417969 95.472656 59.558594 C 99.132812 65.566406 103.386719 71.175781 108.140625 76.3125 C 94.796875 100.828125 68.808594 117.464844 38.929688 117.464844 Z M 38.929688 117.464844 "/>
<path style=" stroke:none;fill-rule:nonzero;fill:rgb(19.607544%,53.72467%,14.509583%);fill-opacity:1;" d="M 82.933594 28.964844 C 77.15625 27.976562 71.230469 27.464844 65.179688 27.464844 C 55.03125 27.464844 45.214844 28.90625 35.929688 31.589844 C 39.207031 16.371094 52.738281 4.964844 68.929688 4.964844 C 72.882812 4.964844 76.675781 5.648438 80.203125 6.898438 C 80.335938 14.476562 81.273438 21.863281 82.933594 28.964844 Z M 82.933594 28.964844 "/>
<path style=" stroke:none;fill-rule:nonzero;fill:rgb(100%,92.547607%,0%);fill-opacity:1;" d="M -2.320312 52.027344 L -2.320312 -2.535156 L 80.441406 -2.535156 C 80.269531 -0.0585938 80.179688 2.445312 80.179688 4.964844 C 80.179688 5.609375 80.1875 6.253906 80.203125 6.898438 C 76.675781 5.648438 72.882812 4.964844 68.929688 4.964844 C 52.738281 4.964844 39.207031 16.371094 35.929688 31.589844 C 21.703125 35.707031 8.726562 42.75 -2.320312 52.027344 Z M -2.320312 52.027344 "/>
<path style=" stroke:none;fill-rule:nonzero;fill:rgb(100%,92.547607%,0%);fill-opacity:1;" d="M 102.386719 34.246094 C 96.164062 31.890625 89.660156 30.105469 82.933594 28.964844 C 81.277344 21.863281 80.339844 14.476562 80.203125 6.898438 C 91.949219 11.054688 100.699219 21.53125 102.386719 34.246094 Z M 102.386719 34.246094 "/>
<g clip-path="url(#clip5)" clip-rule="nonzero">
<path style=" stroke:none;fill-rule:nonzero;fill:rgb(100%,92.547607%,0%);fill-opacity:1;" d="M 234.289062 207.464844 L 187.167969 207.464844 L 228.613281 100.589844 C 232.773438 98.699219 236.789062 96.539062 240.632812 94.148438 C 252.828125 108.523438 260.179688 127.132812 260.179688 147.464844 C 260.179688 171.113281 250.226562 192.433594 234.289062 207.464844 Z M 234.289062 207.464844 "/>
</g>
<g clip-path="url(#clip6)" clip-rule="nonzero">
<path style=" stroke:none;fill-rule:nonzero;fill:rgb(100%,92.547607%,0%);fill-opacity:1;" d="M 240.632812 94.148438 C 238.519531 91.648438 236.253906 89.273438 233.855469 87.058594 L 268.59375 -2.535156 L 282.679688 -2.535156 L 282.679688 44.011719 C 274.324219 64.851562 259.476562 82.402344 240.632812 94.148438 Z M 240.632812 94.148438 "/>
</g>
<path style=" stroke:none;fill-rule:nonzero;fill:rgb(0%,52.548218%,79.606628%);fill-opacity:1;" d="M 102.679688 38.714844 C 102.679688 46.574219 99.988281 53.820312 95.472656 59.558594 C 89.773438 50.21875 85.496094 39.921875 82.933594 28.964844 C 89.660156 30.105469 96.164062 31.890625 102.386719 34.246094 C 102.582031 35.707031 102.679688 37.199219 102.679688 38.714844 Z M 102.679688 38.714844 "/>
<g clip-path="url(#clip7)" clip-rule="nonzero">
<path style=" stroke:none;fill-rule:nonzero;fill:rgb(19.607544%,53.72467%,14.509583%);fill-opacity:1;" d="M 121.070312 207.464844 L -2.320312 207.464844 L -2.320312 105.808594 C 9.671875 113.203125 23.800781 117.464844 38.929688 117.464844 C 68.808594 117.464844 94.796875 100.828125 108.140625 76.3125 C 112 80.476562 116.195312 84.328125 120.679688 87.824219 C 104.96875 102.847656 95.179688 124.011719 95.179688 147.464844 C 95.179688 171.113281 105.132812 192.433594 121.070312 207.464844 Z M 121.070312 207.464844 "/>
</g>
<g clip-path="url(#clip8)" clip-rule="nonzero">
<path style=" stroke:none;fill-rule:nonzero;fill:rgb(0%,52.548218%,79.606628%);fill-opacity:1;" d="M 282.679688 207.464844 L 234.289062 207.464844 C 250.226562 192.433594 260.179688 171.113281 260.179688 147.464844 C 260.179688 127.132812 252.828125 108.523438 240.632812 94.148438 C 259.476562 82.402344 274.324219 64.851562 282.679688 44.011719 Z M 282.679688 207.464844 "/>
</g>
<path style=" stroke:none;fill-rule:nonzero;fill:rgb(0%,52.548218%,79.606628%);fill-opacity:1;" d="M 191.816406 174.847656 L 168.726562 149.957031 C 169.683594 144.261719 170.179688 138.421875 170.179688 132.464844 C 170.179688 124.207031 169.226562 116.175781 167.425781 108.464844 C 173.203125 109.457031 179.128906 109.964844 185.179688 109.964844 C 191.464844 109.964844 197.613281 109.410156 203.59375 108.351562 L 183.402344 123.308594 Z M 191.816406 174.847656 "/>
<path style=" stroke:none;fill-rule:nonzero;fill:rgb(19.607544%,53.72467%,14.509583%);fill-opacity:1;" d="M 203.59375 108.351562 C 197.613281 109.410156 191.464844 109.964844 185.179688 109.964844 C 179.128906 109.964844 173.203125 109.453125 167.425781 108.464844 C 164.113281 94.289062 157.925781 81.21875 149.515625 69.898438 C 158.308594 66.703125 167.789062 64.964844 177.679688 64.964844 C 180.621094 64.964844 183.523438 65.121094 186.386719 65.421875 L 183.402344 83.722656 L 210.125 103.515625 Z M 203.59375 108.351562 "/>
<path style=" stroke:none;fill-rule:nonzero;fill:rgb(0%,52.548218%,79.606628%);fill-opacity:1;" d="M 203.59375 108.351562 L 210.125 103.515625 L 183.402344 83.722656 L 186.386719 65.421875 C 204.640625 67.335938 221.128906 75.203125 233.855469 87.058594 L 228.613281 100.589844 C 220.746094 104.167969 212.351562 106.808594 203.59375 108.351562 Z M 203.59375 108.351562 "/>
<path style=" stroke:none;fill-rule:nonzero;fill:rgb(0%,52.548218%,79.606628%);fill-opacity:1;" d="M 167.425781 108.464844 C 155.375 106.417969 144.019531 102.316406 133.738281 96.523438 L 126.828125 82.5 C 133.621094 77.175781 141.257812 72.890625 149.515625 69.898438 C 157.925781 81.21875 164.113281 94.289062 167.425781 108.464844 Z M 167.425781 108.464844 "/>
<path style=" stroke:none;fill-rule:nonzero;fill:rgb(88.626099%,0%,10.195923%);fill-opacity:1;" d="M 95.472656 59.558594 C 89.292969 67.417969 79.699219 72.464844 68.929688 72.464844 C 50.292969 72.464844 35.179688 57.351562 35.179688 38.714844 C 35.179688 36.269531 35.441406 33.886719 35.929688 31.589844 C 45.214844 28.90625 55.03125 27.464844 65.179688 27.464844 C 71.230469 27.464844 77.15625 27.976562 82.933594 28.964844 C 85.496094 39.921875 89.773438 50.21875 95.472656 59.558594 Z M 95.472656 59.558594 "/>
<path style=" stroke:none;fill-rule:nonzero;fill:rgb(88.626099%,0%,10.195923%);fill-opacity:1;" d="M 108.140625 76.3125 C 103.386719 71.175781 99.132812 65.566406 95.472656 59.558594 C 99.988281 53.820312 102.679688 46.574219 102.679688 38.714844 C 102.679688 37.199219 102.582031 35.707031 102.386719 34.246094 C 107.683594 36.253906 112.773438 38.675781 117.625 41.480469 C 117.199219 54.066406 113.808594 65.902344 108.140625 76.3125 Z M 108.140625 76.3125 "/>
<path style=" stroke:none;fill-rule:nonzero;fill:rgb(0%,52.548218%,79.606628%);fill-opacity:1;" d="M 117.679688 38.714844 C 117.679688 39.644531 117.664062 40.566406 117.628906 41.480469 C 112.773438 38.675781 107.683594 36.253906 102.386719 34.246094 C 100.699219 21.53125 91.949219 11.054688 80.203125 6.898438 C 80.1875 6.253906 80.179688 5.609375 80.179688 4.964844 C 80.179688 2.445312 80.269531 -0.0585938 80.441406 -2.535156 L 106.027344 -2.535156 C 113.421875 9.457031 117.679688 23.585938 117.679688 38.714844 Z M 117.679688 38.714844 "/>
<g clip-path="url(#clip9)" clip-rule="nonzero">
<path style="fill:none;stroke-width:1.5;stroke-linecap:butt;stroke-linejoin:miter;stroke:rgb(0%,0%,0%);stroke-opacity:1;stroke-miterlimit:4;" d="M 217.501144 169.110838 L 217.501144 292.501463 L 7.501144 292.501463 L 7.501144 7.501463 L 217.501144 7.501463 Z M 217.501144 169.110838 " transform="matrix(0,1,-1,0,290.18115,-10.0363)"/>
</g>
<g clip-path="url(#clip10)" clip-rule="nonzero">
<path style="fill:none;stroke-width:1.5;stroke-linecap:butt;stroke-linejoin:miter;stroke:rgb(0%,0%,0%);stroke-opacity:1;stroke-miterlimit:4;" d="M 118.387862 86.5874 C 119.446456 92.567869 120.001144 98.716306 120.001144 105.001463 C 120.001144 111.052244 119.489425 116.978025 118.501144 122.755369 C 116.454269 134.80615 112.352706 146.161619 106.559737 156.442869 C 103.981612 161.020994 101.071456 165.384275 97.860519 169.501463 C 94.364425 173.985838 90.512862 178.177244 86.3488 182.040525 C 81.212081 186.798338 75.602706 191.048338 69.594894 194.708494 C 60.25505 200.411619 49.958175 204.685056 39.001144 207.251463 C 31.899581 208.907713 24.512862 209.845213 16.934737 209.978025 C 16.290206 209.99365 15.645675 210.001463 15.001144 210.001463 C 12.481612 210.001463 9.977706 209.911619 7.501144 209.739744 C -0.405106 209.177244 -8.061356 207.751463 -15.381669 205.540525 C -58.55745 192.505369 -89.998856 152.423338 -89.998856 105.001463 C -89.998856 61.696775 -63.780106 24.513181 -26.354325 8.454588 C -13.662919 3.017088 0.31755 0.0014625 15.001144 0.0014625 C 28.801925 0.0014625 41.977706 2.665525 54.048019 7.501463 C 74.887862 15.856931 92.438644 30.704588 104.184737 49.548338 C 106.575362 53.392088 108.735519 57.407713 110.626144 61.567869 C 114.204269 69.435056 116.844894 77.829588 118.387862 86.5874 Z M 118.387862 86.5874 " transform="matrix(0,1,-1,0,290.18115,-10.0363)"/>
</g>
<g clip-path="url(#clip11)" clip-rule="nonzero">
<path style="fill:none;stroke-width:1.5;stroke-linecap:butt;stroke-linejoin:miter;stroke:rgb(0%,0%,0%);stroke-opacity:1;stroke-miterlimit:4;" d="M 75.458175 103.794431 C 75.157394 106.657713 75.001144 109.560056 75.001144 112.501463 C 75.001144 122.392088 76.739425 131.872556 79.934737 140.665525 C 82.926925 148.923338 87.212081 156.563963 92.5363 163.353025 C 94.208175 165.489744 95.985519 167.544431 97.860519 169.501463 C 112.883956 185.2124 134.048019 195.001463 157.501144 195.001463 C 181.149581 195.001463 202.469894 185.048338 217.501144 169.110838 C 220.208175 166.259275 222.700363 163.216306 224.962081 159.997556 C 234.434738 146.575681 240.001144 130.185056 240.001144 112.501463 C 240.001144 112.247556 240.001144 111.985838 239.993331 111.728025 C 239.798019 90.114744 231.294113 70.485838 217.501144 55.892088 C 202.469894 39.954588 181.149581 30.001463 157.501144 30.001463 C 137.169113 30.001463 118.559737 37.353025 104.184737 49.548338 C 101.684737 51.661619 99.309737 53.927244 97.094894 56.325681 C 85.239425 69.052244 77.372237 85.536619 75.458175 103.794431 Z M 75.458175 103.794431 " transform="matrix(0,1,-1,0,290.18115,-10.0363)"/>
</g>
<g clip-path="url(#clip12)" clip-rule="nonzero">
<path style="fill:none;stroke-width:1.5;stroke-linecap:butt;stroke-linejoin:miter;stroke:rgb(0%,0%,0%);stroke-opacity:1;stroke-miterlimit:4;" d="M 199.141769 136.567869 C 187.465988 129.075681 174.212081 123.833494 159.993331 121.454588 C 154.298019 120.497556 148.458175 120.001463 142.501144 120.001463 C 134.243331 120.001463 126.212081 120.954588 118.501144 122.751463 C 104.325362 126.067869 91.25505 132.255369 79.938644 140.661619 C 78.227706 141.938963 76.563644 143.259275 74.926925 144.622556 C 65.5988 152.481931 57.653487 161.935056 51.520675 172.552244 C 48.715987 177.403806 46.290206 182.497556 44.282394 187.790525 C 41.926925 194.017088 40.141769 200.520994 39.001144 207.247556 C 38.012862 213.020994 37.501144 218.946775 37.501144 225.001463 C 37.501144 235.145994 38.94255 244.966306 41.626144 254.251463 C 45.743331 268.478025 52.7863 281.450681 62.063644 292.501463 C 70.403487 302.423338 80.544112 310.786619 91.989425 317.071775 C 106.9738 325.313963 124.19255 330.001463 142.501144 330.001463 C 200.493331 330.001463 247.501144 282.989744 247.501144 225.001463 C 247.501144 200.450681 239.079269 177.876463 224.965988 159.997556 C 222.63005 157.036619 220.141769 154.200681 217.501144 151.509275 C 214.426925 148.372556 211.149581 145.423338 207.708175 142.696775 C 204.962081 140.520994 202.110519 138.474119 199.157394 136.575681 " transform="matrix(0,1,-1,0,290.18115,-10.0363)"/>
</g>
<path style="fill:none;stroke-width:1.5;stroke-linecap:butt;stroke-linejoin:miter;stroke:rgb(0%,0%,0%);stroke-opacity:1;stroke-miterlimit:4;" d="M 115.844894 292.501463 C 123.239425 280.509275 127.501144 266.380369 127.501144 251.251463 C 127.501144 221.372556 110.864425 195.384275 86.3488 182.040525 C 75.938644 176.372556 64.102706 172.981931 51.516769 172.55615 C 50.602706 172.517088 49.680831 172.501463 48.751144 172.501463 C 33.622237 172.501463 19.493331 176.763181 7.501144 184.157713 C -1.483231 189.692869 -9.268388 196.974119 -15.381669 205.540525 C -24.584794 218.43115 -29.998856 234.204588 -29.998856 251.251463 C -29.998856 294.74365 5.258956 330.001463 48.751144 330.001463 C 64.727706 330.001463 79.583175 325.247556 91.989425 317.071775 C 101.626144 310.731931 109.7863 302.333494 115.844894 292.501463 Z M 115.844894 292.501463 " transform="matrix(0,1,-1,0,290.18115,-10.0363)"/>
<path style="fill:none;stroke-width:1.5;stroke-linecap:butt;stroke-linejoin:miter;stroke:rgb(0%,0%,0%);stroke-opacity:1;stroke-miterlimit:4;" d="M 41.626144 254.251463 C 26.407394 250.974119 15.001144 237.442869 15.001144 221.251463 C 15.001144 217.298338 15.684737 213.505369 16.934737 209.978025 C 21.090987 198.235838 31.56755 189.481931 44.282394 187.794431 C 45.743331 187.599119 47.235519 187.501463 48.751144 187.501463 C 56.610519 187.501463 63.856612 190.192869 69.594894 194.708494 C 77.454269 200.888181 82.501144 210.481931 82.501144 221.251463 C 82.501144 239.888181 67.387862 255.001463 48.751144 255.001463 C 46.305831 255.001463 43.923019 254.739744 41.626144 254.251463 Z M 41.626144 254.251463 " transform="matrix(0,1,-1,0,290.18115,-10.0363)"/>
<g clip-path="url(#clip13)" clip-rule="nonzero">
<path style="fill:none;stroke-width:1.5;stroke-linecap:butt;stroke-linejoin:miter;stroke:rgb(0%,0%,0%);stroke-opacity:1;stroke-miterlimit:4;" d="M 75.458175 103.794431 L 93.758956 106.778806 L 113.551925 80.05615 L 118.387862 86.5874 L 133.344894 106.778806 L 184.883956 98.364744 L 159.993331 121.454588 L 158.028488 123.278806 L 199.141769 136.567869 C 199.149581 136.575681 199.149581 136.575681 199.157394 136.575681 L 217.501144 142.501463 L 207.708175 142.696775 L 149.215988 143.845213 L 153.137863 172.501463 L 113.551925 153.001463 L 106.563644 156.442869 L 92.5363 163.353025 L 73.965987 172.501463 L 74.926925 144.622556 L 75.001144 142.501463 L 24.602706 139.509275 L 69.075362 123.278806 L 42.219894 98.364744 Z M 75.458175 103.794431 " transform="matrix(0,1,-1,0,290.18115,-10.0363)"/>
</g>
<g clip-path="url(#clip14)" clip-rule="nonzero">
<path style="fill:none;stroke-width:1.5;stroke-linecap:butt;stroke-linejoin:miter;stroke:rgb(0%,0%,0%);stroke-opacity:1;stroke-miterlimit:4;" d="M -67.498856 -7.498537 L -26.354325 8.454588 L 7.501144 21.5874 L 97.094894 56.325681 L 110.626144 61.567869 L 217.501144 103.013181 L 239.993331 111.728025 L 300.001144 135.001463 " transform="matrix(0,1,-1,0,290.18115,-10.0363)"/>
</g>
<path style="fill-rule:nonzero;fill:rgb(100%,92.547607%,0%);fill-opacity:1;stroke-width:1.5;stroke-linecap:butt;stroke-linejoin:miter;stroke:rgb(0%,0%,0%);stroke-opacity:1;stroke-miterlimit:4;" d="M 60.001144 179.438963 L 43.262862 178.435056 L 35.762862 163.435056 L 45.001144 149.438963 L 61.739425 150.442869 L 69.239425 165.442869 Z M 60.001144 179.438963 " transform="matrix(0,1,-1,0,290.18115,-10.0363)"/>
<path style="fill-rule:nonzero;fill:rgb(88.626099%,0%,10.195923%);fill-opacity:1;stroke-width:1.5;stroke-linecap:butt;stroke-linejoin:miter;stroke:rgb(0%,0%,0%);stroke-opacity:1;stroke-miterlimit:4;" d="M 172.501144 222.938963 C 172.501144 227.911619 168.469894 231.938963 163.501144 231.938963 L 99.001144 231.938963 C 94.032394 231.938963 90.001144 227.911619 90.001144 222.938963 L 90.001144 150.938963 C 90.001144 145.970213 94.032394 141.938963 99.001144 141.938963 L 163.501144 141.938963 C 168.469894 141.938963 172.501144 145.970213 172.501144 150.938963 Z M 172.501144 222.938963 " transform="matrix(0,1,-1,0,290.18115,-10.0363)"/>
<g clip-path="url(#clip15)" clip-rule="nonzero">
<path style=" stroke:none;fill-rule:nonzero;fill:rgb(100%,92.547607%,0%);fill-opacity:1;" d="M 103.242188 163.636719 L 58.519531 196.816406 L 60.5 252.464844 L 15.125 220.1875 L -37.1875 239.265625 L -20.507812 186.136719 L -54.820312 142.28125 L 0.859375 141.726562 L 31.96875 95.539062 L 49.703125 148.324219 Z M 103.242188 163.636719 "/>
</g>
<g clip-path="url(#clip16)" clip-rule="nonzero">
<path style="fill:none;stroke-width:1.5;stroke-linecap:butt;stroke-linejoin:miter;stroke:rgb(0%,0%,0%);stroke-opacity:1;stroke-miterlimit:4;" d="M 173.673019 186.938963 L 206.852706 231.661619 L 262.501144 229.68115 L 230.2238 275.05615 L 249.301925 327.36865 L 196.173019 310.688963 L 152.31755 345.001463 L 151.762863 289.321775 L 105.575362 258.2124 L 158.360519 240.478025 Z M 173.673019 186.938963 " transform="matrix(0,1,-1,0,290.18115,-10.0363)"/>
</g>
<path style="fill-rule:nonzero;fill:rgb(19.607544%,53.72467%,14.509583%);fill-opacity:1;stroke-width:1.5;stroke-linecap:butt;stroke-linejoin:miter;stroke:rgb(0%,0%,0%);stroke-opacity:1;stroke-miterlimit:4;" d="M 97.501144 15.001463 L 112.501144 15.001463 L 112.501144 37.501463 L 157.501144 37.501463 L 157.501144 52.501463 L 112.501144 52.501463 L 112.501144 75.001463 L 97.501144 75.001463 L 97.501144 52.501463 L 60.001144 52.501463 L 60.001144 37.501463 L 97.501144 37.501463 Z M 97.501144 15.001463 " transform="matrix(0,1,-1,0,290.18115,-10.0363)"/>
<g clip-path="url(#clip17)" clip-rule="nonzero">
<path style="fill:none;stroke-width:2.25;stroke-linecap:round;stroke-linejoin:miter;stroke:rgb(0%,0%,0%);stroke-opacity:1;stroke-miterlimit:4;" d="M 7.501144 7.501463 L 217.501144 7.501463 L 217.501144 292.501463 L 7.501144 292.501463 Z M 7.501144 7.501463 " transform="matrix(0,1,-1,0,290.18115,-10.0363)"/>
</g>
</g>
</svg>
