<?xml version="1.0" standalone="no"?>
<!DOCTYPE svg PUBLIC "-//W3C//DTD SVG 20010904//EN"
 "http://www.w3.org/TR/2001/REC-SVG-20010904/DTD/svg10.dtd">
<svg version="1.0" xmlns="http://www.w3.org/2000/svg"
 width="300.000000pt" height="300.000000pt" viewBox="0 0 300.000000 300.000000"
 preserveAspectRatio="xMidYMid meet">
<metadata>
Created by potrace 1.11, written by Peter Selinger 2001-2013
</metadata>
<g transform="translate(0.000000,300.000000) scale(0.100000,-0.100000)"
fill="#000000" stroke="none">
<path d="M810 2465 c-147 -47 -337 -220 -478 -434 -130 -197 -260 -494 -296
-676 -4 -16 -9 -41 -11 -55 -56 -276 -8 -479 147 -632 142 -140 328 -189 468
-125 169 78 397 299 555 540 39 59 50 70 41 40 -11 -36 -21 -171 -21 -283 1
-105 3 -119 24 -150 55 -80 153 -147 199 -135 53 13 137 140 227 344 l33 75 0
-106 c1 -125 14 -163 74 -219 57 -51 161 -103 194 -95 36 9 68 41 123 120 79
116 164 278 273 521 27 61 58 128 68 150 10 22 28 64 40 93 16 37 28 52 42 52
25 0 160 46 213 72 97 49 185 119 237 190 48 64 43 69 -35 33 -79 -36 -282
-108 -336 -118 -24 -5 -32 -4 -28 6 2 6 15 41 28 76 l23 64 -43 38 c-24 21
-67 50 -96 65 -52 25 -54 25 -82 7 -106 -68 -170 -235 -141 -365 7 -33 1 -58
-46 -182 -30 -80 -61 -160 -69 -178 -9 -18 -30 -67 -47 -108 -65 -151 -142
-290 -162 -290 -12 0 -8 126 8 223 20 121 22 135 39 222 9 44 19 91 21 105 24
125 108 405 124 415 33 20 -27 68 -135 107 -75 27 -96 22 -119 -27 -20 -43
-56 -177 -87 -320 -17 -83 -27 -115 -49 -170 -5 -11 -25 -63 -45 -115 -87
-221 -198 -443 -220 -436 -19 6 -6 162 28 336 56 287 138 587 180 663 20 37
20 37 1 52 -46 34 -140 73 -194 80 -27 4 -32 0 -59 -58 -32 -68 -99 -295 -130
-445 -22 -105 -31 -119 -198 -287 -284 -286 -489 -435 -607 -441 -143 -7 -218
87 -220 276 -1 79 6 156 17 205 3 11 8 34 12 50 96 409 387 880 617 997 95 49
164 53 186 11 19 -35 1 -153 -43 -293 -2 -7 -11 -31 -47 -125 -34 -88 -120
-265 -149 -307 -24 -33 -24 -38 2 -33 107 21 318 258 422 476 80 165 67 260
-47 367 -49 46 -167 122 -189 122 -7 0 -18 5 -24 11 -18 18 -162 21 -213 4z"/>
</g>
</svg>
